<?xml version="1.0" encoding="UTF-8" standalone="no"?>
<svg xmlns:dc="http://purl.org/dc/elements/1.1/" xmlns:cc="http://creativecommons.org/ns#" xmlns:rdf="http://www.w3.org/1999/02/22-rdf-syntax-ns#"
    xmlns="http://www.w3.org/2000/svg" version="1.1" id="Capa_1" x="0px" y="0px" viewBox="0 0 395.8 137.3" style="enable-background:new 0 0 395.8 137.3;"
    xml:space="preserve"><metadata
   id="metadata57"><rdf:RDF><cc:Work
       rdf:about=""><dc:format>image/svg+xml</dc:format><dc:type
         rdf:resource="http://purl.org/dc/dcmitype/StillImage" /><dc:title></dc:title></cc:Work></rdf:RDF></metadata><defs
   id="defs55" />
<style
   type="text/css"
   id="style2">
	.st0{fill:#283480;}
	.st1{fill:#009FE3;}
	.st2{fill:#FFFFFF;}
	.st3{fill:#EDEDED;}
	.st4{fill:#333333;}
	.st5{fill:#020304;}
</style>
<g
   id="g50">
	<g
   id="g18">
		
		
		<g
   id="g14">
			
			
			
		</g>
		<path
   class="st0"
   d="M116.9,65.8c-6.6-5.7-21.8-19-25.9-22.1c-2.4-1.8-4-2.7-5.4-3.1c-0.6-0.2-1.5-0.4-2.6-0.4    c-1,0-2.2,0.2-3.3,0.6c-2.7,0.8-5.3,3-7.9,5l-0.1,0.1c-2.4,1.9-4.9,3.9-6.7,4.3c-0.8,0.2-1.7,0.3-2.5,0.3c-2.1,0-4-0.6-4.7-1.5    c-0.1-0.1,0-0.4,0.2-0.7l0,0l5.8-6.2c4.5-4.5,8.8-8.8,18.7-9c0.2,0,0.3,0,0.5,0c6.1,0,12.3,2.8,13,3.1c5.8,2.8,11.7,4.2,17.7,4.2    c6.2,0,12.7-1.5,19.4-4.6c-0.8-0.6-1.5-1.3-2.3-1.9c-5.9,2.6-11.6,3.9-17,3.9c-5.6,0-11.1-1.3-16.5-4c-0.3-0.1-7.1-3.3-14.1-3.3    c-0.2,0-0.4,0-0.6,0c-8.3,0.2-13,3.1-16.1,5.7c-3.1,0.1-5.7,0.8-8,1.5c-2.1,0.6-3.9,1.1-5.7,1.1c-0.7,0-2-0.1-2.1-0.1    c-2-0.1-12.2-2.6-20.3-5.6c-0.8,0.6-1.6,1.2-2.4,1.8c8.5,3.5,18.8,6.2,22.1,6.4c0.9,0.1,1.9,0.2,2.8,0.2c2.2,0,4.3-0.6,6.4-1.2    c1.2-0.3,2.6-0.7,4-1c-0.4,0.4-0.8,0.8-1.1,1.1l-5.9,6.4c-0.5,0.5-1.5,1.7-0.8,3.3c0.3,0.6,0.8,1.2,1.5,1.7    c1.4,0.9,3.9,1.6,6.2,1.6c0.9,0,1.7-0.1,2.5-0.3c2.5-0.6,5.1-2.6,7.8-4.8c2.2-1.7,5.3-3.9,7.7-4.6c0.7-0.2,1.5-0.3,2.1-0.3    c0.2,0,0.4,0,0.6,0c1.6,0.2,3.1,0.7,5.8,2.8c4.8,3.6,26.2,22.3,26.4,22.5c0,0,1.4,1.2,1.3,3.1c-0.1,1.1-0.7,2.1-1.7,2.7    c-0.9,0.6-1.9,0.9-2.8,0.9c-1.4,0-2.4-0.7-2.5-0.7c-0.1-0.1-7.4-6.8-10.1-9c-0.4-0.4-0.8-0.7-1.3-0.7c-0.2,0-0.4,0.1-0.6,0.3    c-0.4,0.5,0.1,1.2,0.6,1.7l8.6,8.6c0,0,1.1,1,1.2,2.3c0.1,1.4-0.6,2.6-2,3.5c-1,0.7-2,1-3,1c-1.3,0-2.2-0.6-2.4-0.7l-1.2-1.2    c-2.2-2.2-4.6-4.5-6.3-5.9c-0.4-0.3-0.9-0.7-1.3-0.7c-0.2,0-0.4,0.1-0.5,0.2c-0.2,0.2-0.3,0.6,0.2,1.2c0.2,0.3,0.4,0.5,0.4,0.5    l6.2,7c0.1,0.1,1.3,1.5,0.1,3l-0.2,0.3c-0.2,0.2-0.4,0.4-0.6,0.6c-1.1,0.9-2.5,1-3.1,1c-0.3,0-0.6,0-0.8-0.1    c-0.6-0.1-1-0.3-1.2-0.5l-0.1-0.1c-0.3-0.4-3.5-3.6-6.1-5.7c-0.3-0.3-0.8-0.7-1.2-0.7c-0.2,0-0.4,0.1-0.6,0.3    c-0.5,0.6,0.3,1.4,0.6,1.7l5.3,5.9c0,0.1-0.1,0.2-0.2,0.4c-0.2,0.3-0.8,0.9-2.8,1.2c-0.2,0-0.5,0-0.7,0c-2,0-4.1-1-5.2-1.5    c0.5-1.1,0.8-2.2,0.8-3.4c0-4.4-3.6-7.9-7.9-8c-0.1,0-0.2,0-0.3,0c0.1-2-0.1-5.8-4-7.5c-1.1-0.5-2.2-0.7-3.3-0.7    c-0.8,0-1.7,0.1-2.4,0.4c-0.8-1.6-2.1-2.7-3.9-3.3c-1-0.3-1.9-0.5-2.9-0.5c-1.6,0-3.1,0.5-4.4,1.4c-1.3-1.6-3.2-2.5-5.2-2.5    c-1.8,0-3.5,0.7-4.7,2c-1.7-1.3-8.2-5.4-25.8-9.4c-0.9-0.2-2.8-0.8-4-1.1c-0.2,1-0.4,1.9-0.5,2.9c0,0,3.2,0.8,3.9,0.9    c18,4,23.9,8.1,24.9,8.9c-0.3,0.8-0.5,1.7-0.5,2.6c0,3.7,3,6.7,6.7,6.7c0.4,0,0.8,0,1.2-0.1c0.6,2.7,2.3,4.8,5.1,5.9    c0.8,0.3,1.6,0.5,2.4,0.5c0.5,0,1-0.1,1.5-0.2c0.5,1.3,1.6,2.9,4.2,3.9c0.9,0.4,1.8,0.5,2.6,0.5c0.7,0,1.4-0.1,2.1-0.4    c1.2,3,4.1,4.9,7.3,4.9c2.1,0,4.2-0.9,5.7-2.4c1.3,0.7,4,2,6.7,2c0.4,0,0.7,0,1-0.1c2.7-0.3,4-1.4,4.6-2.2    c0.1-0.1,0.2-0.3,0.3-0.5c0.6,0.2,1.3,0.3,2.2,0.3c1.5,0,2.9-0.5,4.3-1.6c1.4-1,2.4-2.5,2.6-3.7c0,0,0,0,0-0.1    c0.5,0.1,1,0.1,1.5,0.1c1.5,0,3-0.5,4.5-1.4c2.8-1.8,3.3-4.2,3.2-5.7c0.5,0.1,1,0.2,1.5,0.2c1.4,0,2.8-0.4,4.2-1.3    c1.7-1.1,2.8-2.8,2.9-4.7c0.1-1.3-0.2-2.7-0.9-3.8c4.6-2,15.2-5.9,27.7-8.7c-0.1-1-0.2-1.9-0.4-2.9    C131,59.7,119.7,64.6,116.9,65.8z M74.6,90.3c-2.9,0-5.3-2.3-5.4-5.2c0-0.2,0-0.9-0.6-0.9c-0.2,0-0.4,0.1-0.7,0.3    c-0.6,0.6-1.5,1.2-2.7,1.2c-0.5,0-1.1-0.1-1.8-0.4c-3.1-1.3-3.1-3.4-3-4.2c0-0.2,0-0.5-0.1-0.7l-0.2-0.2H60    c-0.2,0-0.3,0.1-0.5,0.2c-0.9,0.6-1.8,0.9-2.6,0.9c-0.5,0-1-0.1-1.5-0.3c-4.1-1.6-3.8-5.4-3.6-6.6c0-0.2,0-0.4-0.2-0.5l-0.3-0.2    L51.1,74c-0.8,0.8-1.8,1.2-2.9,1.2c-2.3,0-4.2-1.9-4.2-4.2c0-2.3,1.9-4.2,4.2-4.2c2.1,0,3.9,1.6,4.2,3.7l0.1,1.1l0.6-1    c0.1-0.1,1.8-2.7,4.9-2.7c0.6,0,1.2,0.1,1.8,0.3c2.5,0.8,2.9,3,3,4c0,0.6,0.4,0.6,0.5,0.6c0.2,0,0.4-0.1,0.5-0.3    c0.5-0.5,1.5-1.3,3.1-1.3c0.7,0,1.5,0.2,2.3,0.5c4,1.7,2.2,6.8,2.2,6.8c-0.3,0.8-0.4,1.2,0,1.4l0.2,0.1h0.1c0.2,0,0.4-0.1,0.8-0.2    c0.5-0.2,1.4-0.5,2.1-0.5h0c3,0,5.4,2.5,5.4,5.4C80.1,87.8,77.6,90.3,74.6,90.3z"
   id="path16" />
	<path
   style="fill:#ececec;stroke-width:0.136924"
   d="M 73.831844,111.88761 C 54.456483,110.88868 37.692304,105.12177 26.150382,95.48512 18.123146,88.78297 12.787305,80.099322 11.127965,71.037358 c -0.49173,-2.68543 -0.623516,-4.427748 -0.623516,-8.243392 0,-4.803519 0.362919,-7.395304 1.529417,-10.922307 3.133637,-9.474817 10.984206,-18.166636 22.218533,-24.599418 2.138602,-1.224565 6.910364,-3.521122 9.348224,-4.49912 17.540375,-7.036683 38.89854,-8.61933 58.311567,-4.320904 24.34556,5.390585 42.28353,19.25152 46.33188,35.801318 0.73333,2.997931 0.86463,4.580083 0.79313,9.557666 -0.0587,4.085781 -0.0966,4.659761 -0.43432,6.576196 -0.96388,5.46939 -2.99312,10.515755 -6.12074,15.221199 -3.12456,4.700841 -7.76212,9.346862 -12.88516,12.908665 -12.72672,8.848279 -30.443815,13.609649 -50.21971,13.496259 -1.920361,-0.011 -4.415802,-0.0677 -5.545426,-0.12591 z m 12.254707,-7.93504 c 30.865889,-1.79449 55.920529,-17.257777 59.894189,-36.965652 0.4164,-2.065152 0.69863,-5.37295 0.56495,-6.621234 -0.0901,-0.841325 -0.11961,-0.904363 -0.39458,-0.842746 -1.85529,0.415758 -7.07027,1.772725 -9.52322,2.477996 -5.24427,1.507833 -13.56119,4.373412 -16.68342,5.748248 l -0.71543,0.315025 0.34837,0.760932 c 1.43785,3.14067 0.0459,6.639999 -3.26385,8.205111 -1.36323,0.644647 -2.24151,0.82412 -3.61394,0.738498 l -1.14519,-0.07145 v 0.388881 c 0,2.301217 -1.71183,4.630287 -4.25765,5.792846 -1.3657,0.623651 -2.29221,0.830611 -3.71005,0.82874 l -1.18996,-0.0016 -0.27714,0.760061 c -0.56223,1.541986 -2.554683,3.425756 -4.363049,4.125065 -0.917574,0.354832 -2.912073,0.499768 -3.863934,0.280786 -0.529371,-0.121787 -0.632009,-0.109149 -0.739126,0.09101 -0.267244,0.499366 -1.298327,1.355788 -2.075153,1.723633 -2.717158,1.286636 -6.083899,0.999101 -9.688391,-0.827434 l -0.657805,-0.333334 -0.696078,0.554226 c -0.838909,0.66795 -2.114088,1.313084 -3.129666,1.583353 -0.976196,0.259788 -2.877322,0.256236 -3.888967,-0.0073 C 71.064602,92.147576 69.181726,90.69564 68.20119,88.942276 67.77879,88.186955 67.65825,88.063345 67.41257,88.133571 65.429957,88.700293 63.593328,88.414705 61.632541,87.2348 60.714544,86.682394 59.51638,85.432165 59.16233,84.657244 l -0.255213,-0.558594 -1.032732,0.08552 c -1.954311,0.161832 -4.19152,-0.721512 -5.752682,-2.271402 -1.007307,-1.000034 -1.537585,-1.836285 -1.995627,-3.14712 l -0.311732,-0.892123 -0.862115,0.04371 c -1.898613,0.09626 -3.900419,-0.732316 -5.19942,-2.15211 -1.552102,-1.696432 -2.090438,-3.853591 -1.541448,-6.176717 l 0.210322,-0.890006 -0.351181,-0.303157 c -0.9106,-0.786069 -3.786837,-2.239488 -6.855605,-3.464272 -5.219741,-2.083263 -12.527847,-4.145004 -21.191473,-5.978474 -0.326079,-0.06901 -0.373261,-0.134632 -0.315761,-0.439191 0.03718,-0.196934 0.142541,-0.804777 0.234135,-1.350762 0.116738,-0.695867 0.225518,-0.992699 0.363791,-0.992699 0.108491,0 0.822609,0.180535 1.586929,0.401189 0.764321,0.220654 3.022493,0.801341 5.018162,1.290415 9.830757,2.409203 17.440227,5.181257 21.821625,7.949403 l 1.214547,0.767345 0.526318,-0.475496 c 2.388395,-2.157771 6.255645,-1.990067 8.714518,0.377903 l 0.57908,0.557672 0.995547,-0.495223 c 1.835854,-0.913225 3.40432,-1.069469 5.582505,-0.556108 1.756543,0.413986 3.642103,1.719832 4.328997,2.998049 0.201853,0.375621 0.317524,0.461436 0.531809,0.394536 0.150616,-0.04702 0.775,-0.153628 1.387519,-0.236899 0.919842,-0.125054 1.307495,-0.113219 2.227326,0.068 3.595964,0.708442 5.764455,3.317525 5.764455,6.935667 v 1.10986 h 0.525795 c 0.804641,0 2.544329,0.490491 3.487992,0.983409 1.155575,0.603612 2.768788,2.242906 3.344097,3.398162 0.940015,1.887609 1.113469,4.145838 0.457492,5.956198 -0.163726,0.45185 -0.310132,0.879316 -0.325348,0.949925 -0.04084,0.189518 2.280783,1.125338 3.447546,1.389668 1.370879,0.310573 3.231989,0.21536 4.231797,-0.216494 0.694803,-0.300113 1.261521,-0.819353 1.261521,-1.155837 0,-0.08781 -1.325333,-1.635305 -2.945186,-3.438868 -1.619852,-1.803564 -2.983488,-3.423447 -3.030301,-3.599743 -0.121798,-0.458688 0.351608,-0.909879 0.828969,-0.790068 0.483029,0.121231 2.853761,2.168597 5.420366,4.681027 2.03373,1.990802 2.155005,2.084828 2.905209,2.252449 0.926522,0.207016 2.404906,0.02002 3.249918,-0.411075 1.725366,-0.880215 2.562627,-2.627705 1.881811,-3.927643 -0.124662,-0.238031 -1.737995,-2.13672 -3.585185,-4.219308 -1.847188,-2.082589 -3.450025,-3.963468 -3.56186,-4.179731 -0.111834,-0.216263 -0.166167,-0.490065 -0.120738,-0.608448 0.11245,-0.29304 0.647124,-0.407543 1.006053,-0.215449 0.571548,0.305883 3.115955,2.584577 5.687156,5.093244 1.44739,1.412184 2.87491,2.683133 3.21772,2.864779 0.51721,0.274063 0.81451,0.32665 1.85135,0.327475 1.11673,8.21e-4 1.32149,-0.0415 2.13493,-0.441956 1.88888,-0.929895 2.85598,-2.213022 2.85858,-3.792711 0.002,-1.425003 -0.14525,-1.613793 -5.413,-6.923666 -2.65223,-2.673443 -4.895597,-5.003573 -4.985258,-5.178066 -0.132373,-0.257618 -0.121986,-0.379887 0.05525,-0.65039 0.256343,-0.391229 0.695118,-0.429214 1.174194,-0.101654 0.715174,0.488988 5.802004,4.968621 9.375544,8.256414 0.67777,0.62358 1.54976,1.281255 1.93776,1.4615 1.02145,0.474523 2.22978,0.548568 3.31864,0.203357 2.72275,-0.863219 3.86419,-3.094769 2.73689,-5.350706 -0.38554,-0.771523 -0.73869,-1.127464 -3.59426,-3.622597 -8.72232,-7.621378 -18.25272,-15.765416 -21.651473,-18.5019 -3.623206,-2.917201 -4.891191,-3.704124 -6.75809,-4.194141 -3.117349,-0.81823 -6.490753,0.649983 -12.525778,5.451611 -3.209729,2.553747 -5.346222,3.746276 -7.448074,4.157302 -0.51855,0.101404 -1.458551,0.14083 -2.396172,0.100502 -3.384309,-0.145565 -6.095037,-1.354418 -7.034466,-3.13703 -0.306509,-0.581616 -0.313753,-1.693541 -0.01472,-2.260261 0.232985,-0.441552 4.536519,-5.191753 6.645176,-7.334882 0.646027,-0.656588 1.144369,-1.224024 1.107427,-1.260966 -0.07341,-0.07341 -0.362151,-0.0039 -4.505544,1.084247 -1.543819,0.40545 -3.288977,0.811844 -3.878128,0.903097 -1.411879,0.218685 -4.606872,0.08735 -6.696747,-0.275272 -4.389183,-0.761593 -12.024547,-2.994285 -17.895654,-5.23295 -1.161951,-0.443055 -2.131018,-0.823933 -2.15348,-0.846395 -0.02246,-0.02246 0.469972,-0.419169 1.0943,-0.881571 l 1.13514,-0.840732 1.497575,0.54412 c 4.45128,1.617305 11.976208,3.739216 16.489395,4.649751 1.712611,0.345519 2.452134,0.426317 3.963074,0.432989 2.107226,0.0093 2.704374,-0.09578 6.378717,-1.122523 2.881176,-0.805102 4.851793,-1.204952 6.523193,-1.323591 l 1.2078,-0.08573 1.062445,-0.8158 c 3.422822,-2.628223 7.303553,-4.118858 12.220444,-4.694019 5.802383,-0.678741 11.721188,0.482856 18.691453,3.668297 3.652247,1.669091 8.065137,2.877965 11.907987,3.262092 2.04436,0.204351 6.7303,0.08875 8.63063,-0.212924 3.25783,-0.517166 6.40768,-1.3782 9.58468,-2.620038 1.05432,-0.412116 1.97943,-0.778485 2.0558,-0.814154 0.0764,-0.03567 0.6223,0.337079 1.21317,0.828328 l 1.07431,0.893182 -1.03036,0.46955 c -3.77104,1.718515 -8.71892,3.13102 -13.30838,3.799227 -1.9402,0.282487 -8.22952,0.241093 -10.20084,-0.06714 -3.91713,-0.612472 -7.51317,-1.68656 -11.433163,-3.414927 -5.119242,-2.257132 -9.006011,-3.286153 -13.144713,-3.480064 -3.844982,-0.18015 -7.998046,0.568668 -11.089541,1.999499 -3.292696,1.52395 -5.890555,3.661394 -10.761929,8.854604 -4.053344,4.321136 -4.232571,4.529055 -4.232571,4.910179 0,1.163357 3.89188,2.062127 6.656608,1.537242 1.897387,-0.36022 3.381477,-1.273355 8.062733,-4.960858 3.674113,-2.89416 5.343282,-3.917601 7.599287,-4.659457 1.012158,-0.332833 1.386939,-0.384023 2.875406,-0.392725 1.462526,-0.0086 1.851006,0.03758 2.67002,0.317098 3.246428,1.107949 5.267584,2.694877 23.163823,18.187275 l 8.10217,7.01388 1.44291,-0.604525 c 7.90413,-3.311539 17.83005,-6.441786 26.1,-8.230917 0.94135,-0.203654 1.72507,-0.379963 1.7416,-0.391799 0.0165,-0.01183 -0.11925,-0.682264 -0.30173,-1.489842 -0.93823,-4.152263 -3.01228,-8.487237 -5.88426,-12.298763 -9.11177,-12.092588 -26.46856,-20.722444 -47.039073,-23.387999 -4.81133,-0.623458 -6.939937,-0.744665 -13.144714,-0.748485 -6.380233,-0.0039 -8.677432,0.132525 -13.777511,0.818382 -13.070208,1.757679 -24.85506,5.91525 -34.201702,12.066 -11.022069,7.253299 -17.546054,16.625203 -18.71323,26.882128 -0.2074,1.822597 -0.09108,5.774599 0.221657,7.530826 1.699991,9.546576 8.047456,18.227216 18.273504,24.990403 2.764302,1.828223 4.282124,2.695077 7.530825,4.300977 13.321729,6.585215 29.86846,9.626715 46.964966,8.632745 z M 75.861114,90.196205 c 1.724314,-0.449126 2.844321,-1.351173 3.61579,-2.912132 0.499424,-1.010516 0.516456,-1.092949 0.514477,-2.489921 -0.0017,-1.199763 -0.05366,-1.557414 -0.306388,-2.108776 -1.305325,-2.847791 -3.911438,-3.993998 -6.948542,-3.056068 -1.034838,0.319582 -1.108878,0.325337 -1.339337,0.104094 -0.233854,-0.224504 -0.232272,-0.270662 0.03826,-1.116066 0.36542,-1.141926 0.494866,-2.974899 0.282165,-3.995535 -0.430871,-2.067516 -2.365473,-3.435889 -4.868825,-3.443793 -1.093929,-0.0035 -2.125697,0.388845 -2.968193,1.128564 -0.270084,0.237137 -0.557779,0.431158 -0.639323,0.431158 -0.211068,0 -0.431184,-0.463126 -0.434995,-0.915236 -0.0043,-0.510775 -0.539747,-1.792763 -1.001774,-2.398512 -0.488117,-0.639954 -1.719997,-1.281935 -2.864544,-1.492825 -2.150482,-0.396244 -4.636746,0.719781 -5.88086,2.639774 L 52.61277,71.25962 52.444532,70.428391 c -0.211337,-1.044169 -0.587396,-1.787644 -1.228482,-2.428731 -1.678622,-1.678621 -4.575174,-1.629477 -6.141447,0.1042 -0.799946,0.885446 -1.080775,1.645342 -1.079978,2.922319 5.48e-4,0.922043 0.05925,1.208429 0.370754,1.809667 0.780088,1.50566 1.889636,2.238947 3.536686,2.337355 1.274839,0.07617 2.167157,-0.184014 2.960746,-0.863296 0.474651,-0.406284 0.575493,-0.44415 0.719793,-0.270278 0.114037,0.137406 0.138634,0.435713 0.07676,0.930937 -0.206452,1.652378 0.431211,3.59538 1.538067,4.686601 1.779498,1.754361 3.824302,2.13965 5.820795,1.096773 1.189583,-0.621385 1.326593,-0.545286 1.326593,0.736816 0,1.654054 0.858246,2.829238 2.738482,3.749771 0.788908,0.386235 1.022214,0.435589 2.053862,0.434488 1.229467,-0.0014 1.957269,-0.251057 2.508763,-0.860881 0.351139,-0.388277 1.028297,-0.652513 1.20903,-0.47178 0.07839,0.07839 0.229809,0.645467 0.336481,1.260166 0.239828,1.382006 0.69602,2.304779 1.572934,3.181693 1.335974,1.335973 3.299817,1.880034 5.096743,1.411994 z"
   id="path61" /><path
   style="fill:#ffffff;stroke-width:0.136924"
   d="m 170.73946,48.467934 0.0453,-10.166614 0.37328,-1.284153 c 1.29738,-4.463313 4.27648,-7.460192 8.55583,-8.606887 1.16051,-0.31097 1.59934,-0.356359 3.45186,-0.357029 1.91414,-6.93e-4 2.24061,0.03533 3.32827,0.367218 2.03811,0.62191 3.66092,1.594575 4.93533,2.958086 l 0.66431,0.71076 0.91032,-0.873196 c 1.53646,-1.473816 2.7793,-2.198119 4.77054,-2.78017 1.66315,-0.486147 3.65041,-0.586133 5.50062,-0.276756 2.84162,0.475152 4.58065,1.342424 6.45978,3.221558 1.413,1.413002 2.14616,2.601662 2.81593,4.565431 0.71379,2.092866 0.7382,2.522091 0.7382,12.984691 v 9.703675 h -3.55486 -3.55486 l -0.0416,-9.755842 c -0.0392,-9.192477 -0.0566,-9.795376 -0.30149,-10.440462 -0.73688,-1.940916 -1.92461,-2.897433 -3.99707,-3.218987 -1.86746,-0.289746 -3.71164,0.259647 -4.91671,1.464723 -0.69953,0.699524 -1.02743,1.272999 -1.35001,2.361043 -0.19336,0.652208 -0.22049,1.902982 -0.22049,10.166614 v 9.422911 h -3.49156 -3.49157 v -9.372561 c 0,-6.36547 -0.049,-9.605359 -0.15261,-10.098152 -0.37117,-1.764702 -1.43647,-3.095127 -2.93511,-3.665591 -1.14033,-0.434073 -3.08026,-0.438019 -4.20791,-0.0086 -1.55532,0.592334 -2.63698,1.721239 -3.10688,3.242599 -0.26751,0.866093 -0.27757,1.24303 -0.27757,10.400465 v 9.501801 h -3.49732 -3.49731 z"
   id="path69" /><path
   id="path71"
   style="fill:#ffffff;stroke-width:0.136924"
   d="M 200.45508 28 C 199.51909 28.047093 198.60697 28.192473 197.77539 28.435547 C 195.78415 29.017598 194.54037 29.742981 193.00391 31.216797 L 192.09375 32.089844 L 191.42969 31.378906 C 190.15528 30.015395 188.53225 29.041832 186.49414 28.419922 C 185.40648 28.088034 185.08016 28.052041 183.16602 28.052734 C 181.3135 28.053404 180.87535 28.099186 179.71484 28.410156 C 175.43549 29.556851 172.45558 32.554265 171.1582 37.017578 L 170.78516 38.300781 L 170.74023 48.46875 L 170.69336 58.634766 L 174.19141 58.634766 L 177.68945 58.634766 L 177.68945 49.132812 C 177.68945 39.975378 177.69929 39.598515 177.9668 38.732422 C 178.4367 37.211062 179.51695 36.082568 181.07227 35.490234 C 182.19992 35.060815 184.14092 35.063974 185.28125 35.498047 C 186.77989 36.068511 187.84563 37.399361 188.2168 39.164062 C 188.32041 39.656856 188.36914 42.896249 188.36914 49.261719 L 188.36914 58.634766 L 191.86133 58.634766 L 195.35156 58.634766 L 195.35156 49.210938 C 195.35156 40.947305 195.37891 39.69713 195.57227 39.044922 C 195.89485 37.956878 196.22234 37.383118 196.92188 36.683594 C 198.12695 35.478518 199.97238 34.929004 201.83984 35.21875 C 203.9123 35.540304 205.09906 36.496584 205.83594 38.4375 C 206.08083 39.082586 206.09947 39.686429 206.13867 48.878906 L 206.17969 58.634766 L 209.73438 58.634766 L 213.28906 58.634766 L 213.28906 48.931641 C 213.28906 38.469041 213.26457 38.038179 212.55078 35.945312 C 211.88101 33.981544 211.14738 32.793861 209.73438 31.380859 C 207.85524 29.501725 206.11701 28.635308 203.27539 28.160156 C 202.35029 28.005468 201.39106 27.952907 200.45508 28 z " /><path
   style="fill:#ffffff;stroke-width:0.136924"
   d="m 170.73946,48.467934 0.0453,-10.166614 0.37328,-1.284153 c 1.29738,-4.463313 4.27648,-7.460192 8.55583,-8.606887 1.16051,-0.31097 1.59934,-0.356359 3.45186,-0.357029 1.91414,-6.93e-4 2.24061,0.03533 3.32827,0.367218 2.03811,0.62191 3.66092,1.594575 4.93533,2.958086 l 0.66431,0.71076 0.91032,-0.873196 c 1.53646,-1.473816 2.7793,-2.198119 4.77054,-2.78017 1.66315,-0.486147 3.65041,-0.586133 5.50062,-0.276756 2.84162,0.475152 4.58065,1.342424 6.45978,3.221558 1.413,1.413002 2.14616,2.601662 2.81593,4.565431 0.71379,2.092866 0.7382,2.522091 0.7382,12.984691 v 9.703675 h -3.55486 -3.55486 l -0.0416,-9.755842 c -0.0392,-9.192477 -0.0566,-9.795376 -0.30149,-10.440462 -0.73688,-1.940916 -1.92461,-2.897433 -3.99707,-3.218987 -1.86746,-0.289746 -3.71164,0.259647 -4.91671,1.464723 -0.69953,0.699524 -1.02743,1.272999 -1.35001,2.361043 -0.19336,0.652208 -0.22049,1.902982 -0.22049,10.166614 v 9.422911 h -3.49156 -3.49157 v -9.372561 c 0,-6.36547 -0.049,-9.605359 -0.15261,-10.098152 -0.37117,-1.764702 -1.43647,-3.095127 -2.93511,-3.665591 -1.14033,-0.434073 -3.08026,-0.438019 -4.20791,-0.0086 -1.55532,0.592334 -2.63698,1.721239 -3.10688,3.242599 -0.26751,0.866093 -0.27757,1.24303 -0.27757,10.400465 v 9.501801 h -3.49732 -3.49731 z"
   id="path76" /><path
   style="fill:#ffffff;stroke-width:0.136924"
   d="m 170.73946,48.467934 0.0453,-10.166614 0.37328,-1.284153 c 1.29738,-4.463313 4.27648,-7.460192 8.55583,-8.606887 1.16051,-0.31097 1.59934,-0.356359 3.45186,-0.357029 1.91414,-6.93e-4 2.24061,0.03533 3.32827,0.367218 2.03811,0.62191 3.66092,1.594575 4.93533,2.958086 l 0.66431,0.71076 0.91032,-0.873196 c 1.53646,-1.473816 2.7793,-2.198119 4.77054,-2.78017 1.66315,-0.486147 3.65041,-0.586133 5.50062,-0.276756 2.84162,0.475152 4.58065,1.342424 6.45978,3.221558 1.413,1.413002 2.14616,2.601662 2.81593,4.565431 0.71379,2.092866 0.7382,2.522091 0.7382,12.984691 v 9.703675 h -3.55486 -3.55486 l -0.0416,-9.755842 c -0.0392,-9.192477 -0.0566,-9.795376 -0.30149,-10.440462 -0.73688,-1.940916 -1.92461,-2.897433 -3.99707,-3.218987 -1.86746,-0.289746 -3.71164,0.259647 -4.91671,1.464723 -0.69953,0.699524 -1.02743,1.272999 -1.35001,2.361043 -0.19336,0.652208 -0.22049,1.902982 -0.22049,10.166614 v 9.422911 h -3.49156 -3.49157 v -9.372561 c 0,-6.36547 -0.049,-9.605359 -0.15261,-10.098152 -0.37117,-1.764702 -1.43647,-3.095127 -2.93511,-3.665591 -1.14033,-0.434073 -3.08026,-0.438019 -4.20791,-0.0086 -1.55532,0.592334 -2.63698,1.721239 -3.10688,3.242599 -0.26751,0.866093 -0.27757,1.24303 -0.27757,10.400465 v 9.501801 h -3.49732 -3.49731 z"
   id="path78" /><path
   id="path80"
   style="fill:#ffffff;stroke-width:0.136924"
   d="M 230.74609 28.183594 C 228.22183 28.189782 227.90079 28.219034 226.63867 28.556641 C 222.45318 29.676219 219.16938 32.44227 217.59766 36.171875 C 216.72471 38.243341 216.32225 40.211921 216.20898 42.957031 C 216.00349 47.93721 217.16269 52.060446 219.48438 54.607422 C 221.6021 56.930637 225.49412 58.856195 228.9668 59.298828 C 231.87297 59.669255 235.13784 59.269787 237.74805 58.224609 C 240.57019 57.09457 243.4676 54.288932 244.60938 51.582031 L 244.89844 50.898438 L 240.92383 50.861328 L 236.95117 50.826172 L 236.22266 51.492188 C 234.95238 52.65315 233.79993 53.021484 231.43164 53.021484 C 229.68166 53.021484 228.83741 52.853544 227.58984 52.261719 C 225.85403 51.438278 224.63432 49.773282 224.17383 47.599609 C 224.06354 47.079046 223.9717 46.453735 223.9707 46.208984 L 223.96875 45.763672 L 234.7168 45.763672 L 245.4668 45.763672 L 245.46484 43.880859 C 245.4622 39.469626 244.63905 36.372228 242.77344 33.757812 C 240.74447 30.914471 238.46095 29.412501 234.78516 28.5 C 233.6299 28.21321 233.17822 28.177594 230.74609 28.183594 z M 231.07617 34.404297 C 231.88736 34.410989 232.69285 34.482809 233.15234 34.619141 C 235.80075 35.404922 237.1628 37.085699 237.71484 40.251953 L 237.79102 40.697266 L 231.01172 40.697266 L 224.23047 40.697266 L 224.32031 40.183594 C 224.8188 37.319588 226.55313 35.230683 228.9668 34.585938 C 229.44811 34.457367 230.26498 34.397605 231.07617 34.404297 z " /></g>
	<g
   id="g36"
   style="fill:#ffffff">
		<path
   class="st0"
   d="M385.7,32.5c-2.5-3.1-6.3-4.7-11.4-4.7c-5.1,0-8.9,1.6-11.4,4.7c-2.5,3.1-3.8,6.8-3.8,11.1    c0,4.4,1.3,8.1,3.8,11.2c2.5,3.1,6.3,4.6,11.4,4.6c5.1,0,8.9-1.5,11.4-4.6c2.5-3.1,3.8-6.8,3.8-11.2    C389.4,39.3,388.2,35.6,385.7,32.5z M379.5,50.5c-1.2,1.6-3,2.4-5.2,2.4c-2.3,0-4-0.8-5.2-2.4c-1.2-1.6-1.8-3.9-1.8-6.9    c0-3,0.6-5.3,1.8-6.9c1.2-1.6,3-2.4,5.2-2.4c2.3,0,4,0.8,5.2,2.4c1.2,1.6,1.8,3.9,1.8,6.9C381.3,46.6,380.7,48.9,379.5,50.5z"
   id="path20"
   style="fill:#ffffff" />
		<path
   class="st0"
   d="M321.7,29.8c-2.5-1.3-5.4-1.9-8.7-1.9c-5,0-8.6,1.3-10.6,3.9c-1.3,1.7-2,3.8-2.2,6.4h7.5    c0.2-1.1,0.6-2.1,1.1-2.7c0.8-0.9,2.1-1.4,4-1.4c1.7,0,2.9,0.2,3.8,0.7c0.9,0.5,1.3,1.3,1.3,2.5c0,1-0.6,1.7-1.7,2.2    c-0.6,0.3-1.7,0.5-3.1,0.7l-2.7,0.3c-3,0.4-5.3,1-6.9,1.9c-2.8,1.6-4.3,4.3-4.3,7.9c0,2.8,0.9,5,2.7,6.5c1.8,1.5,4,2.2,6.7,2.3    c17,0.8,16.8-9,17-11V37.2C325.5,33.6,324.2,31.1,321.7,29.8z M317.7,46.8c-0.1,2.6-0.8,4.4-2.2,5.4c-1.4,1-3,1.5-4.7,1.5    c-1.1,0-2-0.3-2.7-0.9c-0.7-0.6-1.1-1.6-1.1-2.9c0-1.5,0.6-2.6,1.8-3.3c0.7-0.4,1.9-0.8,3.6-1.1l1.8-0.3c0.9-0.2,1.6-0.3,2.1-0.5    c0.5-0.2,1-0.4,1.5-0.7V46.8z"
   id="path22"
   style="fill:#ffffff" />
		<path
   class="st0"
   d="M282.9,34.6c1.9,0,3.4,0.6,4.3,1.8c0.6,0.9,1,1.9,1.2,3h8.4c-0.5-4.2-1.9-7.2-4.4-8.9    c-2.5-1.7-5.7-2.5-9.6-2.5c-4.6,0-8.2,1.4-10.9,4.2c-2.6,2.8-3.9,6.8-3.9,11.9c0,4.5,1.2,8.2,3.6,11c2.4,2.8,6.1,4.2,11.1,4.2    c5,0,8.8-1.7,11.4-5.1c1.6-2.1,2.5-4.3,2.7-6.7h-8.4c-0.2,1.6-0.7,2.8-1.5,3.8c-0.8,1-2.2,1.5-4.1,1.5c-2.7,0-4.5-1.2-5.5-3.7    c-0.5-1.3-0.8-3.1-0.8-5.2c0-2.3,0.3-4.1,0.8-5.5C278.2,35.9,280.1,34.6,282.9,34.6z"
   id="path24"
   style="fill:#ffffff" />
		<path
   class="st0"
   d="M265.6,28c-17.2,0-16.2,15.2-16.2,15.2v15.5h7.8V44.2c0-2.4,0.3-4.1,0.9-5.3c1.1-2,3.2-3.1,6.3-3.1    c0.2,0,0.5,0,0.9,0c0.4,0,0.8,0.1,1.3,0.1v-8c-0.3,0-0.6,0-0.7,0C265.9,28,265.8,28,265.6,28z"
   id="path26"
   style="fill:#ffffff" />
		<path
   class="st0"
   d="M236.9,50.6c-0.3,0.5-0.7,0.9-1.1,1.2c-1.1,0.9-2.6,1.2-4.4,1.2c-1.7,0-3-0.3-4.2-1c-2-1.2-3-3.2-3.2-6.2    h21.6c0-2.6-0.1-4.5-0.3-5.9c-0.4-2.3-1.1-4.4-2.4-6.1c-1.3-2-3.1-3.5-5.1-4.4c-2.1-0.9-4.4-1.4-7-1.4c-4.4,0-7.9,1.4-10.6,4.1    c-2.7,2.7-4.1,6.7-4.1,11.8c0,5.5,1.5,9.5,4.5,11.9c3,2.4,6.5,3.7,10.5,3.7c4.8,0,8.5-1.4,11.2-4.3c1.4-1.5,2.3-3,2.7-4.5H236.9z     M226.4,36.1c1.1-1.1,2.6-1.7,4.6-1.7c1.8,0,3.4,0.5,4.6,1.6c1.2,1.1,1.9,2.6,2.1,4.7h-13.4C224.6,38.7,225.3,37.2,226.4,36.1z"
   id="path28"
   style="fill:#ffffff" />
		<g
   id="g32"
   style="fill:#ffffff">
			<path
   class="st0"
   d="M213.2,58.7h-7.1v-18c0-1.6-0.5-5.5-5.3-5.5c-3.1,0-5.4,2.3-5.4,5.5v18h-7.1v-18c0-1.6-0.5-5.5-5.2-5.5     c-3.2,0-5.4,2.3-5.4,5.5v18h-7.1V40.9c0-7.4,4.9-13,12.6-13c3.8,0,6.9,1.6,8.9,4.1c2.1-2.5,5.2-4.1,8.9-4.1     c7.8,0,12.4,5.4,12.4,13V58.7z"
   id="path30"
   style="fill:#ffffff" />
		</g>
		<path
   class="st0"
   d="M356.8,18.6c0,0-7.9-0.8-7.9,5.5l0,8.4c-0.9-1.4-2-2.5-3.4-3.3c-1.4-0.8-3-1.2-4.8-1.2c-3.9,0-7,1.5-9.4,4.4    c-2.3,2.9-3.5,7.1-3.5,12.2c0,4.4,1.2,8,3.6,10.8c2.4,2.8,7,4,11.1,4c14.4,0,14.2-12.3,14.2-12.3L356.8,18.6z M347.4,50.5    c-1.1,1.6-2.8,2.5-5,2.5c-2.2,0-3.8-0.8-4.9-2.5c-1.1-1.6-1.6-4-1.6-6.8c0-2.5,0.5-4.7,1.6-6.4c1.1-1.7,2.7-2.6,5-2.6    c1.5,0,2.8,0.5,3.9,1.4c1.8,1.6,2.8,4.4,2.8,8C349.1,46.8,348.6,48.9,347.4,50.5z"
   id="path34"
   style="fill:#ffffff" />
	</g>
	<g
   id="g48"
   style="fill:#ffffff">
		<g
   id="g46"
   style="fill:#ffffff">
			<path
   class="st1"
   d="M227.6,108.3c0,1.1-0.4,2-1.2,2.7c-0.8,0.8-1.7,1.1-2.8,1.1h-3.9V85c0-5.3,1.8-8.6,4.7-10.8     c1.9-1.5,4.8-2.9,10.2-2.9c3.6,0,7.9,1.4,10.2,4.2c2.6,3.2,3.7,6.7,3.7,11.3c0,4.8-1.1,8.6-3.4,11.6c-2.3,2.9-5.2,4.3-8.8,4.3     c-1.9,0-3.6-0.3-5.1-1c-1.5-0.8-2.8-1.9-3.7-3.5V108.3z M240.7,87.2c0-2.9-0.6-5.2-1.7-6.8c-1.1-1.6-2.8-2.4-4.9-2.4     c-2.1,0-3.7,0.8-4.8,2.4c-1.1,1.4-1.6,3.7-1.6,6.8c0,2.9,0.6,5,1.7,6.5c1.1,1.6,2.8,2.4,4.9,2.4c2,0,3.6-0.8,4.7-2.4     C240.1,92.1,240.7,89.9,240.7,87.2"
   id="path38"
   style="fill:#ffffff" />
			<path
   class="st1"
   d="M300.4,100.2v-1.9c-1.4,2.1-3.2,3.4-5.5,4c-2.3,0.5-4.6,0.3-6.8-0.6c-2.3-0.9-4.2-2.6-5.8-5     c-1.6-2.5-2.4-5.7-2.4-9.7c0-4.7,1.1-8.5,3.2-11.4c2.1-2.9,5.6-4.2,10.3-4.4c4.7-0.1,7.4,0.9,10,2.9c2.9,2.2,4.6,5.6,4.6,10.9v16     c0,5.1-3.5,14.5-14.7,13.7c-6.9-0.5-10.7-3.3-12.9-9.7h8.2c0.6,1.1,1.5,1.9,2.8,2.4c1.2,0.6,2.5,0.7,3.7,0.5     c1.2-0.3,2.4-1,3.4-2.2C299.6,104.4,300.2,102.6,300.4,100.2 M287.5,87.2c0,5.2,1.5,8.1,4.5,8.7c3,0.6,5.2-0.1,6.7-2.1     c0.7-0.8,1.2-2.1,1.5-3.9c0.3-1.8,0.3-3.5,0.1-5.3c-0.3-1.7-0.9-3.3-1.9-4.6c-1-1.4-2.4-2-4.3-2c-2.6,0-4.3,0.9-5.2,2.8     C288,82.6,287.5,84.8,287.5,87.2"
   id="path40"
   style="fill:#ffffff" />
			<path
   class="st1"
   d="M273.1,73.4c-2.5-1.3-5.5-1.9-8.7-1.9c-5,0-8.6,1.3-10.6,3.9c-1.3,1.7-2,3.8-2.2,6.4h7.5     c0.2-1.2,0.6-2.1,1.1-2.7c0.8-0.9,2.1-1.4,4-1.4c1.7,0,2.9,0.2,3.8,0.7c0.9,0.5,1.3,1.3,1.3,2.5c0,1-0.6,1.7-1.7,2.2     c-0.6,0.3-1.7,0.5-3.1,0.7l-2.7,0.3c-3,0.4-5.3,1-6.9,1.9c-2.8,1.6-4.3,4.3-4.3,7.9c0,2.8,0.9,5,2.7,6.5c1.8,1.5,4,2.2,6.7,2.3     c17,0.8,16.8-9,17-11V80.7C277,77.1,275.7,74.7,273.1,73.4 M269.2,90.3c0,2.6-0.8,4.4-2.2,5.4c-1.4,1-3,1.5-4.7,1.5     c-1.1,0-2-0.3-2.7-0.9c-0.8-0.6-1.1-1.6-1.1-2.9c0-1.5,0.6-2.6,1.8-3.3c0.7-0.4,1.9-0.8,3.6-1.1l1.8-0.3c0.9-0.2,1.6-0.3,2.1-0.5     c0.5-0.2,1-0.4,1.5-0.7V90.3z"
   id="path42"
   style="fill:#ffffff" />
			<path
   class="st1"
   d="M337.6,75.8c-2.5-3.1-6.3-4.7-11.4-4.7c-5.1,0-8.9,1.6-11.4,4.7C312.3,79,311,82.7,311,87     c0,4.4,1.3,8.1,3.8,11.2c2.5,3.1,6.3,4.6,11.4,4.6c5.1,0,8.9-1.5,11.4-4.6c2.5-3.1,3.8-6.8,3.8-11.2     C341.4,82.7,340.1,79,337.6,75.8 M331.4,93.8c-1.2,1.6-3,2.4-5.2,2.4s-4-0.8-5.2-2.4c-1.2-1.6-1.8-3.9-1.8-6.9     c0-3,0.6-5.3,1.8-6.9c1.2-1.6,3-2.4,5.2-2.4s4,0.8,5.2,2.4c1.2,1.6,1.8,3.9,1.8,6.9C333.2,89.9,332.6,92.2,331.4,93.8"
   id="path44"
   style="fill:#ffffff" />
		</g>
	</g>
<path
   style="fill:#ffffff;stroke-width:0.19364"
   d="M 72.076757,111.6984 C 67.102483,111.40635 59.879421,110.29057 54.649165,109.00628 35.36632,104.27138 21.019046,94.118681 14.467813,80.572353 12.518224,76.541086 11.54039,73.378512 10.967241,69.250578 10.510994,65.964597 10.674056,57.449423 11.238293,55.096081 c 0.925945,-3.861968 2.826742,-8.207473 5.039732,-11.521575 4.026949,-6.030629 10.322366,-11.713441 17.757737,-16.029736 2.024468,-1.175221 7.808541,-3.95568 10.156847,-4.882492 15.967753,-6.302041 35.251864,-8.087531 53.347797,-4.939401 22.057724,3.837357 39.947554,14.682507 47.599944,28.855983 1.76059,3.260894 3.12508,7.388054 3.60476,10.903321 0.25941,1.901045 0.26325,8.534372 0.006,10.975054 -0.57315,5.445325 -3.03651,12.064646 -6.30547,16.943492 -3.93411,5.871579 -9.49915,11.078613 -16.15006,15.111093 -9.90582,6.00593 -22.51681,9.76472 -36.985226,11.02369 -3.075016,0.26757 -13.735059,0.36833 -17.233953,0.16289 z m 17.054747,-7.89821 c 16.754396,-1.47675 32.156226,-7.079101 42.779986,-15.561042 7.75958,-6.195196 12.85588,-13.938441 14.23041,-21.621492 0.38767,-2.166939 0.62074,-6.961869 0.34662,-7.131278 -0.20913,-0.129255 -5.40955,1.146437 -9.83285,2.412056 -4.95514,1.417791 -17.01634,5.598901 -17.47544,6.058002 -0.0347,0.03474 0.12731,0.531971 0.36012,1.104953 0.97089,2.389501 0.39862,4.802811 -1.57138,6.626684 -1.49492,1.384027 -3.03079,1.973301 -5.0826,1.950056 l -1.50071,-0.017 v 0.809043 c 0,1.136699 -0.97489,2.9971 -2.08052,3.970323 -0.49175,0.432851 -1.46652,1.062326 -2.16615,1.398829 -1.07053,0.514891 -1.55304,0.624727 -3.04545,0.693245 l -1.77339,0.08142 -0.32552,0.852354 c -0.41971,1.099007 -1.9039,2.710304 -3.22327,3.499327 -1.182805,0.707351 -3.101392,1.093582 -4.488136,0.903507 -0.834255,-0.114347 -0.939167,-0.07534 -1.774276,0.659756 -1.158532,1.019781 -2.323009,1.552268 -3.875356,1.772107 -1.989544,0.281756 -4.758769,-0.262035 -6.90171,-1.355284 -0.933626,-0.476298 -1.033499,-0.470674 -1.782175,0.10037 -0.341751,0.260666 -1.206751,0.747872 -1.922219,1.082681 -1.241704,0.581063 -1.39116,0.605458 -3.286921,0.536493 -1.597665,-0.05812 -2.16906,-0.161879 -2.921771,-0.530566 -1.207527,-0.591459 -2.864008,-2.109974 -3.516811,-3.223897 L 67.78889,87.995306 66.882994,88.14935 c -2.85988,0.486315 -5.780512,-0.762492 -7.359918,-3.14696 l -0.61209,-0.924087 -1.501581,-0.024 c -1.243114,-0.01987 -1.722346,-0.127317 -2.784132,-0.62421 -2.109931,-0.987405 -3.623895,-2.603561 -4.345876,-4.639218 l -0.352643,-0.994296 -1.560002,-0.0857 C 46.038118,77.582953 44.500464,76.712087 43.221406,74.796756 42.210188,73.282499 41.932183,71.92215 42.24672,70.027368 l 0.237596,-1.431284 -0.549744,-0.447835 c -0.727747,-0.592842 -4.355267,-2.380498 -6.759388,-3.33105 -4.444954,-1.757468 -9.961277,-3.392695 -16.799224,-4.979866 -2.430691,-0.564195 -4.4627,-1.069069 -4.515576,-1.121946 -0.05288,-0.05288 0.0097,-0.634283 0.139137,-1.292016 0.211818,-1.076651 0.275902,-1.184513 0.642778,-1.081876 0.224127,0.0627 3.065211,0.805347 6.31352,1.650321 6.355048,1.653126 9.308554,2.537801 13.264335,3.97312 2.81365,1.020908 6.621333,2.781093 8.232599,3.8057 0.584165,0.371471 1.156617,0.73203 1.272119,0.801243 0.1155,0.06921 0.665327,-0.216286 1.221837,-0.63444 1.193937,-0.897106 2.010981,-1.156816 3.643945,-1.158282 1.554568,-0.0014 3.049755,0.559342 4.206519,1.577567 l 0.898822,0.791174 1.116706,-0.501146 c 0.614187,-0.275633 1.583944,-0.601353 2.155011,-0.723826 2.492723,-0.534593 6.134627,0.85268 7.409984,2.822608 l 0.437564,0.675865 1.765181,-0.121558 c 3.252295,-0.223963 5.677931,0.953669 7.020841,3.408578 0.600383,1.097532 0.693434,1.454218 0.763908,2.92824 l 0.08025,1.678475 0.994107,0.104289 c 4.881523,0.512107 8.324647,5.396103 6.92264,9.819604 -0.488894,1.542518 -0.472384,1.564678 1.739224,2.334432 1.284371,0.447027 1.95316,0.565021 3.17608,0.560357 2.157828,-0.0082 3.788423,-0.665688 3.768926,-1.519632 -0.0039,-0.169871 -0.930158,-1.354513 -2.058401,-2.632537 -3.669852,-4.157048 -3.977968,-4.558777 -3.727729,-4.860296 0.123775,-0.149139 0.340559,-0.271162 0.481742,-0.271162 0.350813,0 2.264522,1.614915 4.88064,4.118607 2.660786,2.546441 3.13107,2.851094 4.400418,2.850628 2.620779,-9.69e-4 4.550538,-1.475403 4.550538,-3.476853 0,-1.00863 0.01363,-0.990163 -4.997718,-6.772866 -2.294085,-2.647196 -2.672661,-3.316045 -1.955122,-3.454231 0.346224,-0.06668 2.610483,1.866773 6.254511,5.340725 1.374234,1.310092 2.759084,2.516688 3.077454,2.681322 0.42394,0.219226 0.99925,0.280497 2.14969,0.228941 1.41736,-0.06352 1.67684,-0.139014 2.65569,-0.772649 0.59667,-0.386238 1.28777,-1.030575 1.53578,-1.431859 0.60255,-0.974951 0.72802,-2.5119 0.28183,-3.452191 -0.18487,-0.389586 -2.54739,-2.971269 -5.25004,-5.73707 -2.70265,-2.765802 -4.913914,-5.099352 -4.913914,-5.185665 0,-0.232914 0.43165,-0.621672 0.690262,-0.621672 0.272144,0 3.329732,2.598096 7.757902,6.592057 1.79688,1.620681 3.6156,3.107715 4.04161,3.304521 1.23196,0.569145 3.09868,0.494742 4.37989,-0.17457 1.48252,-0.774477 2.19949,-1.853035 2.19072,-3.295569 -0.008,-1.349055 -0.40786,-2.166967 -1.61042,-3.295731 -1.29934,-1.219606 -12.80283,-11.196155 -17.546784,-15.217667 -8.279549,-7.018684 -10.678204,-8.803548 -12.649022,-9.412273 -3.471716,-1.072304 -6.268969,-0.01185 -12.66213,4.800313 -2.485959,1.871189 -4.271859,3.056557 -5.519524,3.66351 -1.723153,0.838265 -1.967093,0.902833 -3.709045,0.981733 -4.810298,0.21788 -8.819707,-2.026901 -8.250346,-4.619185 0.130163,-0.592624 1.782599,-2.53744 5.97799,-7.035728 1.05375,-1.129827 1.857206,-2.112931 1.785461,-2.184677 -0.07175,-0.07175 -1.935991,0.31671 -4.142766,0.863237 -2.206776,0.546527 -4.429947,1.041721 -4.940379,1.100431 -1.300434,0.149579 -5.098073,-0.189433 -7.398457,-0.660452 -4.105123,-0.84055 -11.754427,-3.144515 -16.43939,-4.951529 l -1.916396,-0.739166 0.754557,-0.63963 c 0.415006,-0.351797 0.90406,-0.688866 1.086786,-0.749043 0.182727,-0.06018 1.620503,0.327202 3.195059,0.86084 4.596018,1.557652 10.622048,3.214819 14.841409,4.081409 1.282631,0.263432 2.657524,0.392141 4.188927,0.392141 1.991085,0 2.607252,-0.08652 4.868092,-0.683592 3.793617,-1.00186 5.872609,-1.449914 7.691951,-1.657726 1.4792,-0.16896 1.711701,-0.256435 2.710959,-1.019946 4.338862,-3.315233 10.135078,-4.985669 16.372497,-4.718459 4.141247,0.177409 8.34419,1.231059 13.088747,3.281262 4.573694,1.97637 7.872274,2.985999 11.583124,3.545366 2.16073,0.325705 6.88836,0.370008 9.42681,0.08834 2.45153,-0.272023 6.90211,-1.414294 9.9272,-2.547881 l 2.56889,-0.962636 0.99087,0.788947 0.99088,0.788947 -1.23962,0.562069 c -2.79549,1.267536 -7.25769,2.600638 -11.49546,3.434318 -2.16049,0.425022 -9.61636,0.483832 -11.90886,0.09393 -3.68009,-0.625897 -6.98624,-1.649623 -11.597846,-3.59119 -5.379683,-2.264941 -9.431215,-3.211542 -13.739813,-3.210172 -5.626274,0.0018 -10.067256,1.390811 -14.064389,4.398972 -1.860672,1.400303 -5.474011,4.922493 -8.873357,8.649519 -1.66967,1.83062 -2.080355,2.393051 -2.03322,2.784488 0.08435,0.700485 0.825377,1.165211 2.382747,1.494311 1.734979,0.366634 3.213583,0.368019 4.609928,0.0043 2.03452,-0.529925 2.285324,-0.693568 9.719426,-6.341679 2.144802,-1.629528 5.164485,-3.144104 6.874217,-3.447884 2.455732,-0.436327 4.764452,0.130014 7.34575,1.801949 2.450002,1.586895 9.233766,7.26804 25.145527,21.058428 l 2.96119,2.566401 3.52575,-1.409412 c 6.64443,-2.656099 16.28967,-5.664113 22.98656,-7.168707 1.54427,-0.346954 2.83936,-0.656834 2.87796,-0.68862 0.13764,-0.113347 -0.61071,-3.108184 -1.1808,-4.725453 -3.41631,-9.691645 -11.91117,-18.259659 -24.15939,-24.367471 -8.88168,-4.429019 -17.70361,-6.950082 -29.723731,-8.494217 -2.2569,-0.289927 -4.170431,-0.348257 -11.424755,-0.348257 -9.439679,0 -10.329069,0.06427 -17.427593,1.25937 -21.980835,3.700671 -39.835103,14.742978 -46.493563,28.754817 -1.053668,2.217303 -1.874109,4.679638 -2.419504,7.261497 -0.551867,2.612495 -0.597564,7.67463 -0.09325,10.329917 3.855878,20.301825 29.014627,35.894206 60.818354,37.692766 3.722921,0.21054 10.943231,0.0727 15.021528,-0.28677 z M 76.964546,89.903256 c 1.047532,-0.439891 2.147238,-1.561789 2.679179,-2.733239 0.563035,-1.23993 0.515223,-3.729321 -0.09454,-4.922375 -1.263636,-2.472412 -3.728711,-3.446326 -6.881178,-2.718648 -1.199044,0.276771 -1.481437,0.100032 -1.164634,-0.728901 0.118562,-0.310223 0.26525,-1.324128 0.325977,-2.253119 0.139375,-2.132169 -0.19151,-3.114024 -1.411244,-4.187676 -1.056332,-0.929822 -2.174791,-1.258915 -3.939646,-1.159191 -1.14814,0.06488 -1.494554,0.173039 -2.24237,0.700148 -1.025071,0.722537 -1.260408,0.767984 -1.260408,0.243402 0,-0.702152 -0.770816,-2.448542 -1.307627,-2.962608 -1.330519,-1.274139 -4.015494,-1.765678 -5.718983,-1.046976 -1.03765,0.437785 -2.29782,1.383209 -2.752206,2.064798 -0.213004,0.319512 -0.43616,0.581179 -0.495902,0.581485 -0.05974,3.87e-4 -0.223851,-0.449043 -0.364688,-0.998554 -0.329089,-1.284042 -1.544121,-2.556584 -2.751451,-2.881684 -1.9981,-0.538034 -4.172374,0.24424 -5.105788,1.836992 -0.721311,1.230822 -0.720773,3.244985 0.0012,4.47693 0.77323,1.319416 1.798698,1.904261 3.488569,1.989594 1.12265,0.05669 1.543273,-0.0076 2.182777,-0.333901 0.435684,-0.22227 0.846775,-0.49251 0.913539,-0.600534 0.296147,-0.479175 0.443255,-0.08596 0.524185,1.401123 0.102327,1.880274 0.558448,3.052822 1.58806,4.082436 1.614862,1.614861 3.524008,2.038043 5.533206,1.22649 0.678309,-0.273981 1.305486,-0.453529 1.393722,-0.398995 0.08824,0.05453 0.162346,0.464347 0.164685,0.910695 0.0083,1.582061 0.965386,2.924603 2.724848,3.822215 0.535171,0.273023 1.133079,0.377742 2.152593,0.377006 1.425025,-9.68e-4 1.524453,-0.03634 2.952987,-1.04869 0.621658,-0.440546 0.787253,-0.281127 0.985683,0.948926 0.615948,3.818216 4.280655,5.824104 7.87946,4.312851 z"
   id="path85" /></g>
</svg>
